Coordinates
version=1
nRows=26
nColumns=24
inDegrees=yes

Units are S.I. units (second, meters, Newtons, ...)
Angles are in degrees.

endheader
time	pelvis_tilt	pelvis_list	pelvis_rotation	pelvis_tx	pelvis_ty	pelvis_tz	hip_flexion_r	hip_adduction_r	hip_rotation_r	knee_angle_r	ankle_angle_r	subtalar_angle_r	mtp_angle_r	hip_flexion_l	hip_adduction_l	hip_rotation_l	knee_angle_l	ankle_angle_l	subtalar_angle_l	mtp_angle_l	lumbar_extension	lumbar_bending	lumbar_rotation
      0.70700000	     -4.12794012	      6.98650265	      5.42912834	      0.03996778	      0.95981821	      0.30687573	     32.80927976	     -8.88912389	      1.08646411	     -1.63928102	      1.37481753	     -8.97452619	      4.51058097	    -24.37674251	      9.14589563	     10.38540429	      3.98538376	      5.62279579	     -5.28408667	      9.03306156	     -6.57654782	      0.37479190	    -13.46683697
      0.71116667	     -4.20961549	      6.82320773	      5.47470030	      0.04606598	      0.95921245	      0.30724256	     32.87590824	     -8.67805697	      1.34293014	     -2.25576013	      1.19041614	     -9.10877619	      4.52339950	    -24.48843298	      8.93333996	     10.22360196	      3.73204388	      5.37802909	     -5.24588811	      9.04562794	     -6.42343787	      0.59776992	    -13.45085129
      0.71533333	     -4.29295843	      6.65694343	      5.52693344	      0.05221387	      0.95863801	      0.30760212	     32.94050015	     -8.46645524	      1.55971593	     -2.87582858	      0.94964821	     -9.21854365	      4.54186767	    -24.58498349	      8.71697656	     10.05193493	      3.45142363	      5.13505623	     -5.18686695	      9.07669147	     -6.25445272	      0.82549401	    -13.44386461
      0.71950000	     -4.39450722	      6.47150426	      5.57346661	      0.05843261	      0.95806365	      0.30800690	     33.01490306	     -8.22892516	      1.76461890	     -3.47934064	      0.65204369	     -9.32830881	      4.57329005	    -24.65122132	      8.48388149	      9.85027320	      3.15380463	      4.87118651	     -5.09842560	      9.13892217	     -6.06571227	      1.06761564	    -13.44605470
      0.72366667	     -4.47792578	      6.28409800	      5.62066743	      0.06469905	      0.95754548	      0.30840944	     33.07925814	     -7.98966052	      1.89983590	     -4.10580068	      0.31492742	     -9.39683484	      4.60138764	    -24.72799764	      8.24723696	      9.64349374	      2.84232038	      4.59210827	     -5.03863937	      9.19849277	     -5.88996055	      1.29444703	    -13.44748591
      0.72783333	     -4.58235580	      6.08361871	      5.66201682	      0.07103336	      0.95703094	      0.30883516	     33.14733924	     -7.73310266	      2.05879052	     -4.69176317	     -0.07602848	     -9.46780242	      4.64597072	    -24.76861011	      8.00209113	      9.42402743	      2.50623464	      4.27738279	     -4.94152191	      9.29630074	     -5.67655837	      1.57773456	    -13.44937428
      0.73200000	     -4.71001234	      5.85987897	      5.70476642	      0.07741565	      0.95652260	      0.30933782	     33.22444279	     -7.44395093	      2.24989536	     -5.23915970	     -0.63794307	     -9.81477756	      4.86462273	    -24.74428772	      7.73290850	      9.09958643	      2.09474060	      4.08720626	     -4.63546153	      9.78571069	     -5.44621761	      1.84574800	    -13.51160039
      0.73616667	     -4.78606138	      5.64834621	      5.72441138	      0.08385047	      0.95609785	      0.30978577	     33.28608554	     -7.16862466	      2.29982312	     -5.86135555	     -1.05706620	     -9.72944677	      4.92889097	    -24.80021025	      7.48169942	      8.87057578	      1.74339408	      3.64681144	     -4.62894987	      9.92486527	     -5.26262203	      2.13357127	    -13.47844323
      0.74033333	     -4.89010303	      5.43059547	      5.74639410	      0.09032390	      0.95565942	      0.31028420	     33.38374412	     -6.88320569	      2.35148982	     -6.48912602	     -1.60747568	     -9.86031646	      7.53291969	    -24.78412110	      7.22423260	      8.53138548	      1.32226595	      3.19824451	     -4.48879741	     15.66997376	     -5.05555685	      2.39934586	    -13.45510840
      0.74450000	     -4.98165487	      5.20172021	      5.75305765	      0.09685303	      0.95527345	      0.31078303	     33.47078144	     -6.58254937	      2.37968962	     -7.12140330	     -2.12593495	     -9.86795803	      7.54217838	    -24.79635383	      6.96055729	      8.31048092	      0.92793776	      2.73630602	     -4.50784393	     15.68865281	     -4.85156246	      2.70550673	    -13.45294356
      0.74866667	     -5.08019708	      4.97252394	      5.74957757	      0.10341750	      0.95490670	      0.31130737	     33.57574290	     -6.27548437	      2.40393680	     -7.76962720	     -2.67436373	     -9.93580080	      7.56239798	    -24.77933780	      6.70149916	      8.06785137	      0.49580643	      2.25787902	     -4.49399060	     15.74121629	     -4.63399998	      3.01011414	    -13.45036100
      0.75283333	     -5.18473806	      4.73700664	      5.73449295	      0.11002382	      0.95456061	      0.31186861	     33.69558314	     -5.95544764	      2.42265159	     -8.43247410	     -3.23800907	    -10.03775702	      7.59628903	    -24.73511841	      6.44044323	      7.80324619	      0.02810499	      1.75969385	     -4.46244316	     15.83459039	     -4.41169027	      3.31265555	    -13.44724400
      0.75700000	     -5.30182863	      4.50224666	      5.71711814	      0.11664966	      0.95423493	      0.31247406	     33.82290466	     -5.62739045	      2.48487142	     -9.07975055	     -3.88800557	    -10.39706476	      7.74237340	    -24.63365078	      6.18187886	      7.49503829	     -0.52729641	      1.33330667	     -4.35083069	     16.24614018	     -4.14971830	      3.61713643	    -13.47463806
      0.76116667	     -5.32365079	      4.25014285	      5.64687697	      0.12332954	      0.95402929	      0.31310965	     33.88490823	     -5.26175244	      2.48317427	     -9.79722031	     -4.43197894	    -10.51646239	      9.33381089	    -24.63215996	      5.91155776	      7.06127466	     -1.05302230	      0.72321842	     -4.18984834	     20.78851900	     -4.03544472	      3.96585403	    -13.46569408
      0.76533333	     -5.42579011	      4.03509333	      5.60858894	      0.13001223	      0.95377644	      0.31368389	     34.05610831	     -4.95918834	      2.42405522	    -10.58299022	     -4.86769105	    -10.51762749	      9.34167531	    -24.53282632	      5.68247126	      6.84669537	     -1.61828837	      0.08409285	     -4.26766165	     20.81643645	     -3.81342920	      4.25313836	    -13.41457555
      0.76950000	     -5.52686150	      3.81261170	      5.54083522	      0.13670675	      0.95354050	      0.31431857	     34.23935523	     -4.62900166	      2.40845889	    -11.39591432	     -5.27533553	    -10.61623585	      9.36070353	    -24.41022768	      5.45621454	      6.60968854	     -2.22319474	     -0.55734876	     -4.33157080	     20.90044494	     -3.61171383	      4.54785852	    -13.38672334
      0.77366667	     -5.58505523	      3.59802200	      5.45629755	      0.14343062	      0.95338768	      0.31495644	     34.38736533	     -4.29918622	      2.38125676	    -12.24036967	     -5.62575521	    -10.72224944	      9.37750073	    -24.31021292	      5.24045985	      6.34260028	     -2.86765507	     -1.23335495	     -4.37625897	     20.98857440	     -3.42298057	      4.85673704	    -13.35692299
      0.77783333	     -5.65372909	      3.37602235	      5.35745825	      0.15016685	      0.95325452	      0.31563209	     34.55252505	     -3.95240254	      2.38065661	    -13.10637336	     -5.91935819	    -10.85648221	      9.39857201	    -24.17110963	      5.02316535	      6.07541491	     -3.55609499	     -1.94211383	     -4.42300193	     21.11458162	     -3.24630827	      5.17224876	    -13.32628734
      0.78200000	     -5.70193111	      3.14254332	      5.25030607	      0.15689867	      0.95318914	      0.31636394	     34.67898034	     -3.57904836	      2.43594972	    -13.94086153	     -6.26072344	    -11.20443010	     10.19922852	    -24.01098411	      4.78966450	      5.74820690	     -4.30544952	     -2.73808490	     -4.50021101	     26.66830382	     -3.10452656	      5.49607624	    -13.39171686
      0.78616667	     -5.75342340	      2.91760911	      5.12962430	      0.16366229	      0.95313087	      0.31704971	     34.85224076	     -3.22197123	      2.40908135	    -14.89078707	     -6.35123007	    -11.25031794	     10.20234385	    -23.83883611	      4.57698197	      5.49951317	     -5.08010609	     -3.50913180	     -4.55983239	     26.69683704	     -2.95405329	      5.81621194	    -13.29539706
      0.79033333	     -5.78713238	      2.70798461	      4.99662701	      0.17040661	      0.95312791	      0.31775871	     35.00477241	     -2.86755784	      2.42900204	    -15.84750481	     -6.38827528	    -11.36335785	     10.20257574	    -23.65068134	      4.38366646	      5.25145502	     -5.91706915	     -4.30888944	     -4.64617691	     26.75425724	     -2.82505904	      6.12538664	    -13.23761451
      0.79450000	     -5.81365999	      2.49603312	      4.85473213	      0.17714468	      0.95316821	      0.31848627	     35.14762845	     -2.50271387	      2.47020987	    -16.81229700	     -6.35729981	    -11.50027021	     10.19930186	    -23.43835458	      4.19066551	      5.01352567	     -6.80593075	     -5.14049654	     -4.74947308	     26.84408370	     -2.70802880	      6.43994854	    -13.18905722
      0.79866667	     -5.82552464	      2.28687203	      4.70786995	      0.18386988	      0.95325800	      0.31921875	     35.27110777	     -2.13453437	      2.52882524	    -17.78290391	     -6.25086847	    -11.64638780	     10.19145487	    -23.20820911	      4.00214802	      4.78641352	     -7.75334104	     -5.99938326	     -4.86470437	     26.96124756	     -2.60464073	      6.75756974	    -13.14584163
      0.80283333	     -5.85094676	      2.07724321	      4.56841579	      0.19056608	      0.95336619	      0.31994573	     35.40789558	     -1.76966308	      2.58399109	    -18.76529710	     -6.06807303	    -11.74462286	      9.57733543	    -22.92797303	      3.81181703	      4.59808240	     -8.74896027	     -6.96613201	     -5.12589117	     31.99537584	     -2.50598027	      7.06343945	    -13.09842067
      0.80700000	     -5.82648715	      1.86104743	      4.40874503	      0.19725039	      0.95356415	      0.32071436	     35.47699665	     -1.37761095	      2.67981265	    -19.72654968	     -5.81536337	    -11.91795954	      9.57317634	    -22.66514773	      3.61469809	      4.36371538	     -9.81510968	     -7.86166335	     -5.19389936	     32.00700982	     -2.46594201	      7.38552097	    -13.06920125
      0.81116667	     -5.81280344	      1.64486486	      4.24995798	      0.20389917	      0.95377590	      0.32147131	     35.54823796	     -0.98536311	      2.78541715	    -20.67680820	     -5.50396519	    -12.06692285	      9.55870242	    -22.35241603	      3.42125615	      4.16039501	    -10.94984221	     -8.77141334	     -5.30346024	     32.04650730	     -2.41512599	      7.71083498	    -13.03342035
